<svg xmlns="http://www.w3.org/2000/svg" width="1902" height="1111" fill="none" viewBox="0 0 1902 1111"><rect width="158.333" height="791.667" x="792.666" y="159.334" stroke="#fff" stroke-width="2"/><rect width="158.333" height="950" x="634.334" y="159.334" stroke="#fff" stroke-width="2"/><rect width="158.333" height="950" x="476" y="1" stroke="#fff" stroke-width="2"/><rect width="158.333" height="950" x="317.666" y="159.334" stroke="#fff" stroke-width="2"/><rect width="158.333" height="1108.33" x="159.334" y="1" stroke="#fff" stroke-width="2"/><rect width="158.333" height="950" x="951" y="1" stroke="#fff" stroke-width="2"/><rect width="158.333" height="1108.33" x="1109.33" y="1" stroke="#fff" stroke-width="2"/><rect width="158.333" height="950" x="1267.67" y="159.334" stroke="#fff" stroke-width="2"/><rect width="158.333" height="950" x="1426" y="1" stroke="#fff" stroke-width="2"/><rect width="158.333" height="1108.33" x="1584.33" y="1" stroke="#fff" stroke-width="2"/><rect width="158.333" height="1900" x="1" y="317.666" stroke="#fff" stroke-width="2" transform="rotate(-90 1 317.666)"/><rect width="158.333" height="1741.67" x="159.334" y="476" stroke="#fff" stroke-width="2" transform="rotate(-90 159.334 476)"/><rect width="158.333" height="1741.67" x="1" y="792.666" stroke="#fff" stroke-width="2" transform="rotate(-90 1 792.666)"/><rect width="158.333" height="1900" x="1" y="951" stroke="#fff" stroke-width="2" transform="rotate(-90 1 951)"/></svg>